<svg xmlns="http://www.w3.org/2000/svg" xmlns:xlink="http://www.w3.org/1999/xlink" width="90" zoomAndPan="magnify" viewBox="0 0 67.5 30.000001" height="40" preserveAspectRatio="xMidYMid meet" version="1.0"><defs><g/></defs><g fill="#ff00ff" fill-opacity="1"><g transform="translate(5.967234, 20.268583)"><g><path d="M 3.359375 0.140625 C 2.546875 0.140625 1.867188 -0.0078125 1.328125 -0.3125 C 0.796875 -0.625 0.40625 -1.039062 0.15625 -1.5625 L 1.21875 -2.859375 L 1.390625 -2.859375 C 1.566406 -2.441406 1.8125 -2.109375 2.125 -1.859375 C 2.445312 -1.617188 2.820312 -1.5 3.25 -1.5 C 3.71875 -1.5 4.066406 -1.640625 4.296875 -1.921875 C 4.535156 -2.203125 4.65625 -2.648438 4.65625 -3.265625 L 4.65625 -9.5625 L 6.546875 -9.5625 L 6.546875 -3.234375 C 6.546875 -2.078125 6.28125 -1.222656 5.75 -0.671875 C 5.226562 -0.128906 4.429688 0.140625 3.359375 0.140625 Z M 3.359375 0.140625 "/></g></g></g><g fill="#ff00ff" fill-opacity="1"><g transform="translate(13.694272, 20.268583)"><g><path d="M 5.21875 0.140625 C 4.34375 0.140625 3.566406 -0.0351562 2.890625 -0.390625 C 2.222656 -0.753906 1.695312 -1.300781 1.3125 -2.03125 C 0.9375 -2.769531 0.75 -3.6875 0.75 -4.78125 C 0.75 -5.875 0.9375 -6.789062 1.3125 -7.53125 C 1.695312 -8.269531 2.222656 -8.816406 2.890625 -9.171875 C 3.566406 -9.523438 4.34375 -9.703125 5.21875 -9.703125 C 6.09375 -9.703125 6.863281 -9.523438 7.53125 -9.171875 C 8.195312 -8.816406 8.71875 -8.269531 9.09375 -7.53125 C 9.476562 -6.789062 9.671875 -5.875 9.671875 -4.78125 C 9.671875 -3.6875 9.476562 -2.769531 9.09375 -2.03125 C 8.71875 -1.289062 8.195312 -0.742188 7.53125 -0.390625 C 6.863281 -0.0351562 6.09375 0.140625 5.21875 0.140625 Z M 5.21875 -1.5 C 6.03125 -1.5 6.648438 -1.757812 7.078125 -2.28125 C 7.503906 -2.800781 7.71875 -3.632812 7.71875 -4.78125 C 7.71875 -5.925781 7.503906 -6.757812 7.078125 -7.28125 C 6.648438 -7.8125 6.03125 -8.078125 5.21875 -8.078125 C 4.40625 -8.078125 3.78125 -7.8125 3.34375 -7.28125 C 2.914062 -6.757812 2.703125 -5.925781 2.703125 -4.78125 C 2.703125 -3.632812 2.914062 -2.800781 3.34375 -2.28125 C 3.78125 -1.757812 4.40625 -1.5 5.21875 -1.5 Z M 5.21875 -1.5 "/></g></g></g><g fill="#ff00ff" fill-opacity="1"><g transform="translate(24.125773, 20.268583)"><g><path d="M 4.234375 0.140625 C 3.578125 0.140625 2.988281 0.0546875 2.46875 -0.109375 C 1.957031 -0.273438 1.523438 -0.488281 1.171875 -0.75 C 0.828125 -1.019531 0.566406 -1.3125 0.390625 -1.625 L 1.421875 -2.90625 L 1.59375 -2.90625 C 1.875 -2.476562 2.238281 -2.132812 2.6875 -1.875 C 3.132812 -1.625 3.648438 -1.5 4.234375 -1.5 C 4.742188 -1.5 5.128906 -1.601562 5.390625 -1.8125 C 5.648438 -2.03125 5.78125 -2.328125 5.78125 -2.703125 C 5.78125 -2.929688 5.738281 -3.117188 5.65625 -3.265625 C 5.570312 -3.421875 5.429688 -3.550781 5.234375 -3.65625 C 5.046875 -3.769531 4.785156 -3.867188 4.453125 -3.953125 L 3.234375 -4.234375 C 2.367188 -4.421875 1.722656 -4.742188 1.296875 -5.203125 C 0.878906 -5.660156 0.671875 -6.253906 0.671875 -6.984375 C 0.671875 -7.523438 0.804688 -8 1.078125 -8.40625 C 1.347656 -8.820312 1.738281 -9.140625 2.25 -9.359375 C 2.769531 -9.585938 3.394531 -9.703125 4.125 -9.703125 C 4.851562 -9.703125 5.476562 -9.601562 6 -9.40625 C 6.53125 -9.21875 6.976562 -8.921875 7.34375 -8.515625 L 6.40625 -7.234375 L 6.25 -7.234375 C 5.976562 -7.523438 5.664062 -7.738281 5.3125 -7.875 C 4.96875 -8.019531 4.570312 -8.09375 4.125 -8.09375 C 3.601562 -8.09375 3.207031 -8 2.9375 -7.8125 C 2.664062 -7.632812 2.53125 -7.382812 2.53125 -7.0625 C 2.53125 -6.757812 2.625 -6.515625 2.8125 -6.328125 C 3 -6.148438 3.328125 -6.015625 3.796875 -5.921875 L 5.046875 -5.65625 C 5.984375 -5.457031 6.660156 -5.125 7.078125 -4.65625 C 7.492188 -4.1875 7.703125 -3.578125 7.703125 -2.828125 C 7.703125 -2.222656 7.570312 -1.695312 7.3125 -1.25 C 7.0625 -0.8125 6.675781 -0.46875 6.15625 -0.21875 C 5.632812 0.0195312 4.992188 0.140625 4.234375 0.140625 Z M 4.234375 0.140625 "/></g></g></g><g fill="#00ffff" fill-opacity="1"><g transform="translate(6.155662, 20.734958)"><g><path d="M 3.359375 0.140625 C 2.546875 0.140625 1.867188 -0.0078125 1.328125 -0.3125 C 0.796875 -0.625 0.40625 -1.039062 0.15625 -1.5625 L 1.21875 -2.859375 L 1.390625 -2.859375 C 1.566406 -2.441406 1.8125 -2.109375 2.125 -1.859375 C 2.445312 -1.617188 2.820312 -1.5 3.25 -1.5 C 3.71875 -1.5 4.066406 -1.640625 4.296875 -1.921875 C 4.535156 -2.203125 4.65625 -2.648438 4.65625 -3.265625 L 4.65625 -9.5625 L 6.546875 -9.5625 L 6.546875 -3.234375 C 6.546875 -2.078125 6.28125 -1.222656 5.75 -0.671875 C 5.226562 -0.128906 4.429688 0.140625 3.359375 0.140625 Z M 3.359375 0.140625 "/></g></g></g><g fill="#00ffff" fill-opacity="1"><g transform="translate(13.8827, 20.734958)"><g><path d="M 5.21875 0.140625 C 4.34375 0.140625 3.566406 -0.0351562 2.890625 -0.390625 C 2.222656 -0.753906 1.695312 -1.300781 1.3125 -2.03125 C 0.9375 -2.769531 0.75 -3.6875 0.75 -4.78125 C 0.75 -5.875 0.9375 -6.789062 1.3125 -7.53125 C 1.695312 -8.269531 2.222656 -8.816406 2.890625 -9.171875 C 3.566406 -9.523438 4.34375 -9.703125 5.21875 -9.703125 C 6.09375 -9.703125 6.863281 -9.523438 7.53125 -9.171875 C 8.195312 -8.816406 8.71875 -8.269531 9.09375 -7.53125 C 9.476562 -6.789062 9.671875 -5.875 9.671875 -4.78125 C 9.671875 -3.6875 9.476562 -2.769531 9.09375 -2.03125 C 8.71875 -1.289062 8.195312 -0.742188 7.53125 -0.390625 C 6.863281 -0.0351562 6.09375 0.140625 5.21875 0.140625 Z M 5.21875 -1.5 C 6.03125 -1.5 6.648438 -1.757812 7.078125 -2.28125 C 7.503906 -2.800781 7.71875 -3.632812 7.71875 -4.78125 C 7.71875 -5.925781 7.503906 -6.757812 7.078125 -7.28125 C 6.648438 -7.8125 6.03125 -8.078125 5.21875 -8.078125 C 4.40625 -8.078125 3.78125 -7.8125 3.34375 -7.28125 C 2.914062 -6.757812 2.703125 -5.925781 2.703125 -4.78125 C 2.703125 -3.632812 2.914062 -2.800781 3.34375 -2.28125 C 3.78125 -1.757812 4.40625 -1.5 5.21875 -1.5 Z M 5.21875 -1.5 "/></g></g></g><g fill="#00ffff" fill-opacity="1"><g transform="translate(24.314201, 20.734958)"><g><path d="M 4.234375 0.140625 C 3.578125 0.140625 2.988281 0.0546875 2.46875 -0.109375 C 1.957031 -0.273438 1.523438 -0.488281 1.171875 -0.75 C 0.828125 -1.019531 0.566406 -1.3125 0.390625 -1.625 L 1.421875 -2.90625 L 1.59375 -2.90625 C 1.875 -2.476562 2.238281 -2.132812 2.6875 -1.875 C 3.132812 -1.625 3.648438 -1.5 4.234375 -1.5 C 4.742188 -1.5 5.128906 -1.601562 5.390625 -1.8125 C 5.648438 -2.03125 5.78125 -2.328125 5.78125 -2.703125 C 5.78125 -2.929688 5.738281 -3.117188 5.65625 -3.265625 C 5.570312 -3.421875 5.429688 -3.550781 5.234375 -3.65625 C 5.046875 -3.769531 4.785156 -3.867188 4.453125 -3.953125 L 3.234375 -4.234375 C 2.367188 -4.421875 1.722656 -4.742188 1.296875 -5.203125 C 0.878906 -5.660156 0.671875 -6.253906 0.671875 -6.984375 C 0.671875 -7.523438 0.804688 -8 1.078125 -8.40625 C 1.347656 -8.820312 1.738281 -9.140625 2.25 -9.359375 C 2.769531 -9.585938 3.394531 -9.703125 4.125 -9.703125 C 4.851562 -9.703125 5.476562 -9.601562 6 -9.40625 C 6.53125 -9.21875 6.976562 -8.921875 7.34375 -8.515625 L 6.40625 -7.234375 L 6.25 -7.234375 C 5.976562 -7.523438 5.664062 -7.738281 5.3125 -7.875 C 4.96875 -8.019531 4.570312 -8.09375 4.125 -8.09375 C 3.601562 -8.09375 3.207031 -8 2.9375 -7.8125 C 2.664062 -7.632812 2.53125 -7.382812 2.53125 -7.0625 C 2.53125 -6.757812 2.625 -6.515625 2.8125 -6.328125 C 3 -6.148438 3.328125 -6.015625 3.796875 -5.921875 L 5.046875 -5.65625 C 5.984375 -5.457031 6.660156 -5.125 7.078125 -4.65625 C 7.492188 -4.1875 7.703125 -3.578125 7.703125 -2.828125 C 7.703125 -2.222656 7.570312 -1.695312 7.3125 -1.25 C 7.0625 -0.8125 6.675781 -0.46875 6.15625 -0.21875 C 5.632812 0.0195312 4.992188 0.140625 4.234375 0.140625 Z M 4.234375 0.140625 "/></g></g></g><g fill="#000000" fill-opacity="1"><g transform="translate(6.061448, 20.501771)"><g><path d="M 3.359375 0.140625 C 2.546875 0.140625 1.867188 -0.0078125 1.328125 -0.3125 C 0.796875 -0.625 0.40625 -1.039062 0.15625 -1.5625 L 1.21875 -2.859375 L 1.390625 -2.859375 C 1.566406 -2.441406 1.8125 -2.109375 2.125 -1.859375 C 2.445312 -1.617188 2.820312 -1.5 3.25 -1.5 C 3.71875 -1.5 4.066406 -1.640625 4.296875 -1.921875 C 4.535156 -2.203125 4.65625 -2.648438 4.65625 -3.265625 L 4.65625 -9.5625 L 6.546875 -9.5625 L 6.546875 -3.234375 C 6.546875 -2.078125 6.28125 -1.222656 5.75 -0.671875 C 5.226562 -0.128906 4.429688 0.140625 3.359375 0.140625 Z M 3.359375 0.140625 "/></g></g></g><g fill="#000000" fill-opacity="1"><g transform="translate(13.788486, 20.501771)"><g><path d="M 5.21875 0.140625 C 4.34375 0.140625 3.566406 -0.0351562 2.890625 -0.390625 C 2.222656 -0.753906 1.695312 -1.300781 1.3125 -2.03125 C 0.9375 -2.769531 0.75 -3.6875 0.75 -4.78125 C 0.75 -5.875 0.9375 -6.789062 1.3125 -7.53125 C 1.695312 -8.269531 2.222656 -8.816406 2.890625 -9.171875 C 3.566406 -9.523438 4.34375 -9.703125 5.21875 -9.703125 C 6.09375 -9.703125 6.863281 -9.523438 7.53125 -9.171875 C 8.195312 -8.816406 8.71875 -8.269531 9.09375 -7.53125 C 9.476562 -6.789062 9.671875 -5.875 9.671875 -4.78125 C 9.671875 -3.6875 9.476562 -2.769531 9.09375 -2.03125 C 8.71875 -1.289062 8.195312 -0.742188 7.53125 -0.390625 C 6.863281 -0.0351562 6.09375 0.140625 5.21875 0.140625 Z M 5.21875 -1.5 C 6.03125 -1.5 6.648438 -1.757812 7.078125 -2.28125 C 7.503906 -2.800781 7.71875 -3.632812 7.71875 -4.78125 C 7.71875 -5.925781 7.503906 -6.757812 7.078125 -7.28125 C 6.648438 -7.8125 6.03125 -8.078125 5.21875 -8.078125 C 4.40625 -8.078125 3.78125 -7.8125 3.34375 -7.28125 C 2.914062 -6.757812 2.703125 -5.925781 2.703125 -4.78125 C 2.703125 -3.632812 2.914062 -2.800781 3.34375 -2.28125 C 3.78125 -1.757812 4.40625 -1.5 5.21875 -1.5 Z M 5.21875 -1.5 "/></g></g></g><g fill="#000000" fill-opacity="1"><g transform="translate(24.219987, 20.501771)"><g><path d="M 4.234375 0.140625 C 3.578125 0.140625 2.988281 0.0546875 2.46875 -0.109375 C 1.957031 -0.273438 1.523438 -0.488281 1.171875 -0.75 C 0.828125 -1.019531 0.566406 -1.3125 0.390625 -1.625 L 1.421875 -2.90625 L 1.59375 -2.90625 C 1.875 -2.476562 2.238281 -2.132812 2.6875 -1.875 C 3.132812 -1.625 3.648438 -1.5 4.234375 -1.5 C 4.742188 -1.5 5.128906 -1.601562 5.390625 -1.8125 C 5.648438 -2.03125 5.78125 -2.328125 5.78125 -2.703125 C 5.78125 -2.929688 5.738281 -3.117188 5.65625 -3.265625 C 5.570312 -3.421875 5.429688 -3.550781 5.234375 -3.65625 C 5.046875 -3.769531 4.785156 -3.867188 4.453125 -3.953125 L 3.234375 -4.234375 C 2.367188 -4.421875 1.722656 -4.742188 1.296875 -5.203125 C 0.878906 -5.660156 0.671875 -6.253906 0.671875 -6.984375 C 0.671875 -7.523438 0.804688 -8 1.078125 -8.40625 C 1.347656 -8.820312 1.738281 -9.140625 2.25 -9.359375 C 2.769531 -9.585938 3.394531 -9.703125 4.125 -9.703125 C 4.851562 -9.703125 5.476562 -9.601562 6 -9.40625 C 6.53125 -9.21875 6.976562 -8.921875 7.34375 -8.515625 L 6.40625 -7.234375 L 6.25 -7.234375 C 5.976562 -7.523438 5.664062 -7.738281 5.3125 -7.875 C 4.96875 -8.019531 4.570312 -8.09375 4.125 -8.09375 C 3.601562 -8.09375 3.207031 -8 2.9375 -7.8125 C 2.664062 -7.632812 2.53125 -7.382812 2.53125 -7.0625 C 2.53125 -6.757812 2.625 -6.515625 2.8125 -6.328125 C 3 -6.148438 3.328125 -6.015625 3.796875 -5.921875 L 5.046875 -5.65625 C 5.984375 -5.457031 6.660156 -5.125 7.078125 -4.65625 C 7.492188 -4.1875 7.703125 -3.578125 7.703125 -2.828125 C 7.703125 -2.222656 7.570312 -1.695312 7.3125 -1.25 C 7.0625 -0.8125 6.675781 -0.46875 6.15625 -0.21875 C 5.632812 0.0195312 4.992188 0.140625 4.234375 0.140625 Z M 4.234375 0.140625 "/></g></g></g><g fill="#ff00ff" fill-opacity="1"><g transform="translate(33.79692, 20.501771)"><g><path d="M 7.421875 -5.96875 L 7.421875 -9.5625 L 9.3125 -9.5625 L 9.3125 0 L 7.421875 0 L 7.421875 -4.359375 L 3.140625 -4.359375 L 3.140625 0 L 1.25 0 L 1.25 -9.5625 L 3.140625 -9.5625 L 3.140625 -5.96875 Z M 7.421875 -5.96875 "/></g></g></g><g fill="#ff00ff" fill-opacity="1"><g transform="translate(44.359388, 20.501771)"><g><path d="M 5.078125 0.140625 C 3.753906 0.140625 2.773438 -0.171875 2.140625 -0.796875 C 1.503906 -1.421875 1.1875 -2.351562 1.1875 -3.59375 L 1.1875 -9.5625 L 3.03125 -9.5625 L 3.03125 -3.59375 C 3.03125 -2.894531 3.195312 -2.367188 3.53125 -2.015625 C 3.875 -1.671875 4.390625 -1.5 5.078125 -1.5 C 6.429688 -1.5 7.109375 -2.195312 7.109375 -3.59375 L 7.109375 -9.5625 L 8.96875 -9.5625 L 8.96875 -3.59375 C 8.96875 -2.351562 8.644531 -1.421875 8 -0.796875 C 7.363281 -0.171875 6.390625 0.140625 5.078125 0.140625 Z M 5.078125 0.140625 "/></g></g></g><g fill="#ff00ff" fill-opacity="1"><g transform="translate(54.509311, 20.501771)"><g><path d="M 9.1875 0 L 7.1875 0 L 6.46875 -2.203125 L 2.8125 -2.203125 L 2.09375 0 L 0.140625 0 L 3.453125 -9.5625 L 5.875 -9.5625 Z M 4.546875 -7.578125 L 3.3125 -3.796875 L 5.953125 -3.796875 L 4.71875 -7.578125 Z M 4.546875 -7.578125 "/></g></g></g><g fill="#00ffff" fill-opacity="1"><g transform="translate(33.293916, 20.501771)"><g><path d="M 7.421875 -5.96875 L 7.421875 -9.5625 L 9.3125 -9.5625 L 9.3125 0 L 7.421875 0 L 7.421875 -4.359375 L 3.140625 -4.359375 L 3.140625 0 L 1.25 0 L 1.25 -9.5625 L 3.140625 -9.5625 L 3.140625 -5.96875 Z M 7.421875 -5.96875 "/></g></g></g><g fill="#00ffff" fill-opacity="1"><g transform="translate(43.856384, 20.501771)"><g><path d="M 5.078125 0.140625 C 3.753906 0.140625 2.773438 -0.171875 2.140625 -0.796875 C 1.503906 -1.421875 1.1875 -2.351562 1.1875 -3.59375 L 1.1875 -9.5625 L 3.03125 -9.5625 L 3.03125 -3.59375 C 3.03125 -2.894531 3.195312 -2.367188 3.53125 -2.015625 C 3.875 -1.671875 4.390625 -1.5 5.078125 -1.5 C 6.429688 -1.5 7.109375 -2.195312 7.109375 -3.59375 L 7.109375 -9.5625 L 8.96875 -9.5625 L 8.96875 -3.59375 C 8.96875 -2.351562 8.644531 -1.421875 8 -0.796875 C 7.363281 -0.171875 6.390625 0.140625 5.078125 0.140625 Z M 5.078125 0.140625 "/></g></g></g><g fill="#00ffff" fill-opacity="1"><g transform="translate(54.006307, 20.501771)"><g><path d="M 9.1875 0 L 7.1875 0 L 6.46875 -2.203125 L 2.8125 -2.203125 L 2.09375 0 L 0.140625 0 L 3.453125 -9.5625 L 5.875 -9.5625 Z M 4.546875 -7.578125 L 3.3125 -3.796875 L 5.953125 -3.796875 L 4.71875 -7.578125 Z M 4.546875 -7.578125 "/></g></g></g><g fill="#313bac" fill-opacity="1"><g transform="translate(33.545418, 20.501771)"><g><path d="M 7.421875 -5.96875 L 7.421875 -9.5625 L 9.3125 -9.5625 L 9.3125 0 L 7.421875 0 L 7.421875 -4.359375 L 3.140625 -4.359375 L 3.140625 0 L 1.25 0 L 1.25 -9.5625 L 3.140625 -9.5625 L 3.140625 -5.96875 Z M 7.421875 -5.96875 "/></g></g></g><g fill="#313bac" fill-opacity="1"><g transform="translate(44.107886, 20.501771)"><g><path d="M 5.078125 0.140625 C 3.753906 0.140625 2.773438 -0.171875 2.140625 -0.796875 C 1.503906 -1.421875 1.1875 -2.351562 1.1875 -3.59375 L 1.1875 -9.5625 L 3.03125 -9.5625 L 3.03125 -3.59375 C 3.03125 -2.894531 3.195312 -2.367188 3.53125 -2.015625 C 3.875 -1.671875 4.390625 -1.5 5.078125 -1.5 C 6.429688 -1.5 7.109375 -2.195312 7.109375 -3.59375 L 7.109375 -9.5625 L 8.96875 -9.5625 L 8.96875 -3.59375 C 8.96875 -2.351562 8.644531 -1.421875 8 -0.796875 C 7.363281 -0.171875 6.390625 0.140625 5.078125 0.140625 Z M 5.078125 0.140625 "/></g></g></g><g fill="#313bac" fill-opacity="1"><g transform="translate(54.257809, 20.501771)"><g><path d="M 9.1875 0 L 7.1875 0 L 6.46875 -2.203125 L 2.8125 -2.203125 L 2.09375 0 L 0.140625 0 L 3.453125 -9.5625 L 5.875 -9.5625 Z M 4.546875 -7.578125 L 3.3125 -3.796875 L 5.953125 -3.796875 L 4.71875 -7.578125 Z M 4.546875 -7.578125 "/></g></g></g></svg>