<svg xmlns="http://www.w3.org/2000/svg" xmlns:xlink="http://www.w3.org/1999/xlink" width="90" zoomAndPan="magnify" viewBox="0 0 67.5 30.000001" height="40" preserveAspectRatio="xMidYMid meet" version="1.0"><defs><g/></defs><g fill="#ff00ff" fill-opacity="1"><g transform="translate(17.849751, 16.871293)"><g><path d="M 1.78125 0.078125 C 1.351562 0.078125 0.992188 -0.00390625 0.703125 -0.171875 C 0.421875 -0.335938 0.210938 -0.554688 0.078125 -0.828125 L 0.65625 -1.515625 L 0.734375 -1.515625 C 0.828125 -1.296875 0.957031 -1.117188 1.125 -0.984375 C 1.300781 -0.859375 1.5 -0.796875 1.71875 -0.796875 C 1.976562 -0.796875 2.164062 -0.867188 2.28125 -1.015625 C 2.40625 -1.160156 2.46875 -1.398438 2.46875 -1.734375 L 2.46875 -5.09375 L 3.46875 -5.09375 L 3.46875 -1.71875 C 3.46875 -1.101562 3.328125 -0.648438 3.046875 -0.359375 C 2.773438 -0.0664062 2.351562 0.078125 1.78125 0.078125 Z M 1.78125 0.078125 "/></g></g></g><g fill="#ff00ff" fill-opacity="1"><g transform="translate(21.957871, 16.871293)"><g><path d="M 2.765625 0.078125 C 2.304688 0.078125 1.894531 -0.015625 1.53125 -0.203125 C 1.175781 -0.398438 0.898438 -0.691406 0.703125 -1.078125 C 0.503906 -1.472656 0.40625 -1.960938 0.40625 -2.546875 C 0.40625 -3.128906 0.503906 -3.613281 0.703125 -4 C 0.898438 -4.394531 1.175781 -4.6875 1.53125 -4.875 C 1.894531 -5.0625 2.304688 -5.15625 2.765625 -5.15625 C 3.234375 -5.15625 3.644531 -5.0625 4 -4.875 C 4.351562 -4.6875 4.628906 -4.394531 4.828125 -4 C 5.035156 -3.613281 5.140625 -3.128906 5.140625 -2.546875 C 5.140625 -1.960938 5.035156 -1.472656 4.828125 -1.078125 C 4.628906 -0.691406 4.351562 -0.398438 4 -0.203125 C 3.644531 -0.015625 3.234375 0.078125 2.765625 0.078125 Z M 2.765625 -0.796875 C 3.203125 -0.796875 3.535156 -0.929688 3.765625 -1.203125 C 3.992188 -1.484375 4.109375 -1.929688 4.109375 -2.546875 C 4.109375 -3.148438 3.992188 -3.59375 3.765625 -3.875 C 3.535156 -4.15625 3.203125 -4.296875 2.765625 -4.296875 C 2.335938 -4.296875 2.007812 -4.15625 1.78125 -3.875 C 1.550781 -3.59375 1.4375 -3.148438 1.4375 -2.546875 C 1.4375 -1.929688 1.550781 -1.484375 1.78125 -1.203125 C 2.007812 -0.929688 2.335938 -0.796875 2.765625 -0.796875 Z M 2.765625 -0.796875 "/></g></g></g><g fill="#ff00ff" fill-opacity="1"><g transform="translate(27.503833, 16.871293)"><g><path d="M 2.25 0.078125 C 1.894531 0.078125 1.582031 0.0351562 1.3125 -0.046875 C 1.039062 -0.140625 0.8125 -0.253906 0.625 -0.390625 C 0.4375 -0.535156 0.296875 -0.691406 0.203125 -0.859375 L 0.765625 -1.546875 L 0.84375 -1.546875 C 1 -1.316406 1.191406 -1.132812 1.421875 -1 C 1.660156 -0.863281 1.9375 -0.796875 2.25 -0.796875 C 2.519531 -0.796875 2.722656 -0.851562 2.859375 -0.96875 C 2.992188 -1.082031 3.0625 -1.238281 3.0625 -1.4375 C 3.0625 -1.5625 3.039062 -1.660156 3 -1.734375 C 2.957031 -1.816406 2.882812 -1.882812 2.78125 -1.9375 C 2.675781 -2 2.539062 -2.050781 2.375 -2.09375 L 1.71875 -2.25 C 1.257812 -2.351562 0.914062 -2.523438 0.6875 -2.765625 C 0.46875 -3.003906 0.359375 -3.320312 0.359375 -3.71875 C 0.359375 -4 0.429688 -4.25 0.578125 -4.46875 C 0.722656 -4.6875 0.929688 -4.851562 1.203125 -4.96875 C 1.472656 -5.09375 1.800781 -5.15625 2.1875 -5.15625 C 2.582031 -5.15625 2.914062 -5.101562 3.1875 -5 C 3.46875 -4.894531 3.707031 -4.738281 3.90625 -4.53125 L 3.40625 -3.84375 L 3.3125 -3.84375 C 3.175781 -4 3.015625 -4.113281 2.828125 -4.1875 C 2.640625 -4.257812 2.425781 -4.296875 2.1875 -4.296875 C 1.914062 -4.296875 1.707031 -4.25 1.5625 -4.15625 C 1.414062 -4.0625 1.34375 -3.925781 1.34375 -3.75 C 1.34375 -3.59375 1.390625 -3.460938 1.484375 -3.359375 C 1.585938 -3.265625 1.765625 -3.191406 2.015625 -3.140625 L 2.6875 -3 C 3.175781 -2.894531 3.53125 -2.71875 3.75 -2.46875 C 3.976562 -2.21875 4.09375 -1.894531 4.09375 -1.5 C 4.09375 -1.175781 4.023438 -0.894531 3.890625 -0.65625 C 3.753906 -0.425781 3.546875 -0.242188 3.265625 -0.109375 C 2.992188 0.015625 2.65625 0.078125 2.25 0.078125 Z M 2.25 0.078125 "/></g></g></g><g fill="#00ffff" fill-opacity="1"><g transform="translate(17.949929, 17.119243)"><g><path d="M 1.78125 0.078125 C 1.351562 0.078125 0.992188 -0.00390625 0.703125 -0.171875 C 0.421875 -0.335938 0.210938 -0.554688 0.078125 -0.828125 L 0.65625 -1.515625 L 0.734375 -1.515625 C 0.828125 -1.296875 0.957031 -1.117188 1.125 -0.984375 C 1.300781 -0.859375 1.5 -0.796875 1.71875 -0.796875 C 1.976562 -0.796875 2.164062 -0.867188 2.28125 -1.015625 C 2.40625 -1.160156 2.46875 -1.398438 2.46875 -1.734375 L 2.46875 -5.09375 L 3.46875 -5.09375 L 3.46875 -1.71875 C 3.46875 -1.101562 3.328125 -0.648438 3.046875 -0.359375 C 2.773438 -0.0664062 2.351562 0.078125 1.78125 0.078125 Z M 1.78125 0.078125 "/></g></g></g><g fill="#00ffff" fill-opacity="1"><g transform="translate(22.058049, 17.119243)"><g><path d="M 2.765625 0.078125 C 2.304688 0.078125 1.894531 -0.015625 1.53125 -0.203125 C 1.175781 -0.398438 0.898438 -0.691406 0.703125 -1.078125 C 0.503906 -1.472656 0.40625 -1.960938 0.40625 -2.546875 C 0.40625 -3.128906 0.503906 -3.613281 0.703125 -4 C 0.898438 -4.394531 1.175781 -4.6875 1.53125 -4.875 C 1.894531 -5.0625 2.304688 -5.15625 2.765625 -5.15625 C 3.234375 -5.15625 3.644531 -5.0625 4 -4.875 C 4.351562 -4.6875 4.628906 -4.394531 4.828125 -4 C 5.035156 -3.613281 5.140625 -3.128906 5.140625 -2.546875 C 5.140625 -1.960938 5.035156 -1.472656 4.828125 -1.078125 C 4.628906 -0.691406 4.351562 -0.398438 4 -0.203125 C 3.644531 -0.015625 3.234375 0.078125 2.765625 0.078125 Z M 2.765625 -0.796875 C 3.203125 -0.796875 3.535156 -0.929688 3.765625 -1.203125 C 3.992188 -1.484375 4.109375 -1.929688 4.109375 -2.546875 C 4.109375 -3.148438 3.992188 -3.59375 3.765625 -3.875 C 3.535156 -4.15625 3.203125 -4.296875 2.765625 -4.296875 C 2.335938 -4.296875 2.007812 -4.15625 1.78125 -3.875 C 1.550781 -3.59375 1.4375 -3.148438 1.4375 -2.546875 C 1.4375 -1.929688 1.550781 -1.484375 1.78125 -1.203125 C 2.007812 -0.929688 2.335938 -0.796875 2.765625 -0.796875 Z M 2.765625 -0.796875 "/></g></g></g><g fill="#00ffff" fill-opacity="1"><g transform="translate(27.604011, 17.119243)"><g><path d="M 2.25 0.078125 C 1.894531 0.078125 1.582031 0.0351562 1.3125 -0.046875 C 1.039062 -0.140625 0.8125 -0.253906 0.625 -0.390625 C 0.4375 -0.535156 0.296875 -0.691406 0.203125 -0.859375 L 0.765625 -1.546875 L 0.84375 -1.546875 C 1 -1.316406 1.191406 -1.132812 1.421875 -1 C 1.660156 -0.863281 1.9375 -0.796875 2.25 -0.796875 C 2.519531 -0.796875 2.722656 -0.851562 2.859375 -0.96875 C 2.992188 -1.082031 3.0625 -1.238281 3.0625 -1.4375 C 3.0625 -1.5625 3.039062 -1.660156 3 -1.734375 C 2.957031 -1.816406 2.882812 -1.882812 2.78125 -1.9375 C 2.675781 -2 2.539062 -2.050781 2.375 -2.09375 L 1.71875 -2.25 C 1.257812 -2.351562 0.914062 -2.523438 0.6875 -2.765625 C 0.46875 -3.003906 0.359375 -3.320312 0.359375 -3.71875 C 0.359375 -4 0.429688 -4.25 0.578125 -4.46875 C 0.722656 -4.6875 0.929688 -4.851562 1.203125 -4.96875 C 1.472656 -5.09375 1.800781 -5.15625 2.1875 -5.15625 C 2.582031 -5.15625 2.914062 -5.101562 3.1875 -5 C 3.46875 -4.894531 3.707031 -4.738281 3.90625 -4.53125 L 3.40625 -3.84375 L 3.3125 -3.84375 C 3.175781 -4 3.015625 -4.113281 2.828125 -4.1875 C 2.640625 -4.257812 2.425781 -4.296875 2.1875 -4.296875 C 1.914062 -4.296875 1.707031 -4.25 1.5625 -4.15625 C 1.414062 -4.0625 1.34375 -3.925781 1.34375 -3.75 C 1.34375 -3.59375 1.390625 -3.460938 1.484375 -3.359375 C 1.585938 -3.265625 1.765625 -3.191406 2.015625 -3.140625 L 2.6875 -3 C 3.175781 -2.894531 3.53125 -2.71875 3.75 -2.46875 C 3.976562 -2.21875 4.09375 -1.894531 4.09375 -1.5 C 4.09375 -1.175781 4.023438 -0.894531 3.890625 -0.65625 C 3.753906 -0.425781 3.546875 -0.242188 3.265625 -0.109375 C 2.992188 0.015625 2.65625 0.078125 2.25 0.078125 Z M 2.25 0.078125 "/></g></g></g><g fill="#000000" fill-opacity="1"><g transform="translate(17.89984, 16.995268)"><g><path d="M 1.78125 0.078125 C 1.351562 0.078125 0.992188 -0.00390625 0.703125 -0.171875 C 0.421875 -0.335938 0.210938 -0.554688 0.078125 -0.828125 L 0.65625 -1.515625 L 0.734375 -1.515625 C 0.828125 -1.296875 0.957031 -1.117188 1.125 -0.984375 C 1.300781 -0.859375 1.5 -0.796875 1.71875 -0.796875 C 1.976562 -0.796875 2.164062 -0.867188 2.28125 -1.015625 C 2.40625 -1.160156 2.46875 -1.398438 2.46875 -1.734375 L 2.46875 -5.09375 L 3.46875 -5.09375 L 3.46875 -1.71875 C 3.46875 -1.101562 3.328125 -0.648438 3.046875 -0.359375 C 2.773438 -0.0664062 2.351562 0.078125 1.78125 0.078125 Z M 1.78125 0.078125 "/></g></g></g><g fill="#000000" fill-opacity="1"><g transform="translate(22.00796, 16.995268)"><g><path d="M 2.765625 0.078125 C 2.304688 0.078125 1.894531 -0.015625 1.53125 -0.203125 C 1.175781 -0.398438 0.898438 -0.691406 0.703125 -1.078125 C 0.503906 -1.472656 0.40625 -1.960938 0.40625 -2.546875 C 0.40625 -3.128906 0.503906 -3.613281 0.703125 -4 C 0.898438 -4.394531 1.175781 -4.6875 1.53125 -4.875 C 1.894531 -5.0625 2.304688 -5.15625 2.765625 -5.15625 C 3.234375 -5.15625 3.644531 -5.0625 4 -4.875 C 4.351562 -4.6875 4.628906 -4.394531 4.828125 -4 C 5.035156 -3.613281 5.140625 -3.128906 5.140625 -2.546875 C 5.140625 -1.960938 5.035156 -1.472656 4.828125 -1.078125 C 4.628906 -0.691406 4.351562 -0.398438 4 -0.203125 C 3.644531 -0.015625 3.234375 0.078125 2.765625 0.078125 Z M 2.765625 -0.796875 C 3.203125 -0.796875 3.535156 -0.929688 3.765625 -1.203125 C 3.992188 -1.484375 4.109375 -1.929688 4.109375 -2.546875 C 4.109375 -3.148438 3.992188 -3.59375 3.765625 -3.875 C 3.535156 -4.15625 3.203125 -4.296875 2.765625 -4.296875 C 2.335938 -4.296875 2.007812 -4.15625 1.78125 -3.875 C 1.550781 -3.59375 1.4375 -3.148438 1.4375 -2.546875 C 1.4375 -1.929688 1.550781 -1.484375 1.78125 -1.203125 C 2.007812 -0.929688 2.335938 -0.796875 2.765625 -0.796875 Z M 2.765625 -0.796875 "/></g></g></g><g fill="#000000" fill-opacity="1"><g transform="translate(27.553922, 16.995268)"><g><path d="M 2.25 0.078125 C 1.894531 0.078125 1.582031 0.0351562 1.3125 -0.046875 C 1.039062 -0.140625 0.8125 -0.253906 0.625 -0.390625 C 0.4375 -0.535156 0.296875 -0.691406 0.203125 -0.859375 L 0.765625 -1.546875 L 0.84375 -1.546875 C 1 -1.316406 1.191406 -1.132812 1.421875 -1 C 1.660156 -0.863281 1.9375 -0.796875 2.25 -0.796875 C 2.519531 -0.796875 2.722656 -0.851562 2.859375 -0.96875 C 2.992188 -1.082031 3.0625 -1.238281 3.0625 -1.4375 C 3.0625 -1.5625 3.039062 -1.660156 3 -1.734375 C 2.957031 -1.816406 2.882812 -1.882812 2.78125 -1.9375 C 2.675781 -2 2.539062 -2.050781 2.375 -2.09375 L 1.71875 -2.25 C 1.257812 -2.351562 0.914062 -2.523438 0.6875 -2.765625 C 0.46875 -3.003906 0.359375 -3.320312 0.359375 -3.71875 C 0.359375 -4 0.429688 -4.25 0.578125 -4.46875 C 0.722656 -4.6875 0.929688 -4.851562 1.203125 -4.96875 C 1.472656 -5.09375 1.800781 -5.15625 2.1875 -5.15625 C 2.582031 -5.15625 2.914062 -5.101562 3.1875 -5 C 3.46875 -4.894531 3.707031 -4.738281 3.90625 -4.53125 L 3.40625 -3.84375 L 3.3125 -3.84375 C 3.175781 -4 3.015625 -4.113281 2.828125 -4.1875 C 2.640625 -4.257812 2.425781 -4.296875 2.1875 -4.296875 C 1.914062 -4.296875 1.707031 -4.25 1.5625 -4.15625 C 1.414062 -4.0625 1.34375 -3.925781 1.34375 -3.75 C 1.34375 -3.59375 1.390625 -3.460938 1.484375 -3.359375 C 1.585938 -3.265625 1.765625 -3.191406 2.015625 -3.140625 L 2.6875 -3 C 3.175781 -2.894531 3.53125 -2.71875 3.75 -2.46875 C 3.976562 -2.21875 4.09375 -1.894531 4.09375 -1.5 C 4.09375 -1.175781 4.023438 -0.894531 3.890625 -0.65625 C 3.753906 -0.425781 3.546875 -0.242188 3.265625 -0.109375 C 2.992188 0.015625 2.65625 0.078125 2.25 0.078125 Z M 2.25 0.078125 "/></g></g></g><g fill="#ff00ff" fill-opacity="1"><g transform="translate(32.645545, 16.995268)"><g><path d="M 3.9375 -3.171875 L 3.9375 -5.09375 L 4.953125 -5.09375 L 4.953125 0 L 3.9375 0 L 3.9375 -2.3125 L 1.671875 -2.3125 L 1.671875 0 L 0.65625 0 L 0.65625 -5.09375 L 1.671875 -5.09375 L 1.671875 -3.171875 Z M 3.9375 -3.171875 "/></g></g></g><g fill="#ff00ff" fill-opacity="1"><g transform="translate(38.261136, 16.995268)"><g><path d="M 2.703125 0.078125 C 1.992188 0.078125 1.46875 -0.0859375 1.125 -0.421875 C 0.789062 -0.753906 0.625 -1.25 0.625 -1.90625 L 0.625 -5.09375 L 1.609375 -5.09375 L 1.609375 -1.90625 C 1.609375 -1.539062 1.695312 -1.265625 1.875 -1.078125 C 2.0625 -0.890625 2.335938 -0.796875 2.703125 -0.796875 C 3.421875 -0.796875 3.78125 -1.164062 3.78125 -1.90625 L 3.78125 -5.09375 L 4.765625 -5.09375 L 4.765625 -1.90625 C 4.765625 -1.25 4.59375 -0.753906 4.25 -0.421875 C 3.914062 -0.0859375 3.398438 0.078125 2.703125 0.078125 Z M 2.703125 0.078125 "/></g></g></g><g fill="#ff00ff" fill-opacity="1"><g transform="translate(43.657396, 16.995268)"><g><path d="M 4.875 0 L 3.828125 0 L 3.4375 -1.171875 L 1.5 -1.171875 L 1.109375 0 L 0.078125 0 L 1.828125 -5.09375 L 3.125 -5.09375 Z M 2.421875 -4.03125 L 1.765625 -2.015625 L 3.15625 -2.015625 L 2.5 -4.03125 Z M 2.421875 -4.03125 "/></g></g></g><g fill="#00ffff" fill-opacity="1"><g transform="translate(32.378124, 16.995268)"><g><path d="M 3.9375 -3.171875 L 3.9375 -5.09375 L 4.953125 -5.09375 L 4.953125 0 L 3.9375 0 L 3.9375 -2.3125 L 1.671875 -2.3125 L 1.671875 0 L 0.65625 0 L 0.65625 -5.09375 L 1.671875 -5.09375 L 1.671875 -3.171875 Z M 3.9375 -3.171875 "/></g></g></g><g fill="#00ffff" fill-opacity="1"><g transform="translate(37.993715, 16.995268)"><g><path d="M 2.703125 0.078125 C 1.992188 0.078125 1.46875 -0.0859375 1.125 -0.421875 C 0.789062 -0.753906 0.625 -1.25 0.625 -1.90625 L 0.625 -5.09375 L 1.609375 -5.09375 L 1.609375 -1.90625 C 1.609375 -1.539062 1.695312 -1.265625 1.875 -1.078125 C 2.0625 -0.890625 2.335938 -0.796875 2.703125 -0.796875 C 3.421875 -0.796875 3.78125 -1.164062 3.78125 -1.90625 L 3.78125 -5.09375 L 4.765625 -5.09375 L 4.765625 -1.90625 C 4.765625 -1.25 4.59375 -0.753906 4.25 -0.421875 C 3.914062 -0.0859375 3.398438 0.078125 2.703125 0.078125 Z M 2.703125 0.078125 "/></g></g></g><g fill="#00ffff" fill-opacity="1"><g transform="translate(43.389974, 16.995268)"><g><path d="M 4.875 0 L 3.828125 0 L 3.4375 -1.171875 L 1.5 -1.171875 L 1.109375 0 L 0.078125 0 L 1.828125 -5.09375 L 3.125 -5.09375 Z M 2.421875 -4.03125 L 1.765625 -2.015625 L 3.15625 -2.015625 L 2.5 -4.03125 Z M 2.421875 -4.03125 "/></g></g></g><g fill="#313bac" fill-opacity="1"><g transform="translate(32.511834, 16.995268)"><g><path d="M 3.9375 -3.171875 L 3.9375 -5.09375 L 4.953125 -5.09375 L 4.953125 0 L 3.9375 0 L 3.9375 -2.3125 L 1.671875 -2.3125 L 1.671875 0 L 0.65625 0 L 0.65625 -5.09375 L 1.671875 -5.09375 L 1.671875 -3.171875 Z M 3.9375 -3.171875 "/></g></g></g><g fill="#313bac" fill-opacity="1"><g transform="translate(38.127426, 16.995268)"><g><path d="M 2.703125 0.078125 C 1.992188 0.078125 1.46875 -0.0859375 1.125 -0.421875 C 0.789062 -0.753906 0.625 -1.25 0.625 -1.90625 L 0.625 -5.09375 L 1.609375 -5.09375 L 1.609375 -1.90625 C 1.609375 -1.539062 1.695312 -1.265625 1.875 -1.078125 C 2.0625 -0.890625 2.335938 -0.796875 2.703125 -0.796875 C 3.421875 -0.796875 3.78125 -1.164062 3.78125 -1.90625 L 3.78125 -5.09375 L 4.765625 -5.09375 L 4.765625 -1.90625 C 4.765625 -1.25 4.59375 -0.753906 4.25 -0.421875 C 3.914062 -0.0859375 3.398438 0.078125 2.703125 0.078125 Z M 2.703125 0.078125 "/></g></g></g><g fill="#313bac" fill-opacity="1"><g transform="translate(43.523685, 16.995268)"><g><path d="M 4.875 0 L 3.828125 0 L 3.4375 -1.171875 L 1.5 -1.171875 L 1.109375 0 L 0.078125 0 L 1.828125 -5.09375 L 3.125 -5.09375 Z M 2.421875 -4.03125 L 1.765625 -2.015625 L 3.15625 -2.015625 L 2.5 -4.03125 Z M 2.421875 -4.03125 "/></g></g></g></svg>