<svg xmlns="http://www.w3.org/2000/svg" xmlns:xlink="http://www.w3.org/1999/xlink" width="90" zoomAndPan="magnify" viewBox="0 0 424.5 532.499983" height="20" preserveAspectRatio="xMidYMid meet" version="1.0"><defs><g/></defs><g fill="#ff00ff" fill-opacity="1"><g transform="translate(54.202606, 293.727972)"><g><path d="M 19.171875 0.78125 C 14.523438 0.78125 10.664062 -0.09375 7.59375 -1.84375 C 4.53125 -3.601562 2.296875 -5.972656 0.890625 -8.953125 L 7 -16.359375 L 7.9375 -16.359375 C 8.9375 -13.960938 10.351562 -12.070312 12.1875 -10.6875 C 14.019531 -9.300781 16.144531 -8.609375 18.5625 -8.609375 C 21.28125 -8.609375 23.300781 -9.398438 24.625 -10.984375 C 25.945312 -12.566406 26.609375 -15.144531 26.609375 -18.71875 L 26.609375 -54.71875 L 37.390625 -54.71875 L 37.390625 -18.53125 C 37.390625 -11.914062 35.882812 -7.039062 32.875 -3.90625 C 29.875 -0.78125 25.304688 0.78125 19.171875 0.78125 Z M 19.171875 0.78125 "/></g></g></g><g fill="#ff00ff" fill-opacity="1"><g transform="translate(98.36361, 293.727972)"><g><path d="M 29.828125 0.78125 C 24.816406 0.78125 20.394531 -0.238281 16.5625 -2.28125 C 12.726562 -4.332031 9.722656 -7.457031 7.546875 -11.65625 C 5.378906 -15.863281 4.296875 -21.097656 4.296875 -27.359375 C 4.296875 -33.617188 5.378906 -38.851562 7.546875 -43.0625 C 9.722656 -47.269531 12.726562 -50.394531 16.5625 -52.4375 C 20.394531 -54.488281 24.816406 -55.515625 29.828125 -55.515625 C 34.847656 -55.515625 39.265625 -54.492188 43.078125 -52.453125 C 46.898438 -50.421875 49.890625 -47.296875 52.046875 -43.078125 C 54.203125 -38.859375 55.28125 -33.617188 55.28125 -27.359375 C 55.28125 -21.097656 54.203125 -15.859375 52.046875 -11.640625 C 49.890625 -7.421875 46.898438 -4.296875 43.078125 -2.265625 C 39.265625 -0.234375 34.847656 0.78125 29.828125 0.78125 Z M 29.828125 -8.609375 C 34.472656 -8.609375 38.015625 -10.097656 40.453125 -13.078125 C 42.898438 -16.054688 44.125 -20.816406 44.125 -27.359375 C 44.125 -33.898438 42.898438 -38.664062 40.453125 -41.65625 C 38.015625 -44.65625 34.472656 -46.15625 29.828125 -46.15625 C 25.160156 -46.15625 21.597656 -44.65625 19.140625 -41.65625 C 16.679688 -38.664062 15.453125 -33.898438 15.453125 -27.359375 C 15.453125 -20.816406 16.679688 -16.054688 19.140625 -13.078125 C 21.597656 -10.097656 25.160156 -8.609375 29.828125 -8.609375 Z M 29.828125 -8.609375 "/></g></g></g><g fill="#ff00ff" fill-opacity="1"><g transform="translate(157.980963, 293.727972)"><g><path d="M 24.25 0.78125 C 20.457031 0.78125 17.082031 0.316406 14.125 -0.609375 C 11.164062 -1.546875 8.703125 -2.773438 6.734375 -4.296875 C 4.765625 -5.828125 3.253906 -7.5 2.203125 -9.3125 L 8.15625 -16.578125 L 9.09375 -16.578125 C 10.738281 -14.128906 12.828125 -12.179688 15.359375 -10.734375 C 17.898438 -9.296875 20.863281 -8.578125 24.25 -8.578125 C 27.144531 -8.578125 29.328125 -9.1875 30.796875 -10.40625 C 32.273438 -11.625 33.015625 -13.304688 33.015625 -15.453125 C 33.015625 -16.753906 32.773438 -17.84375 32.296875 -18.71875 C 31.828125 -19.59375 31.039062 -20.335938 29.9375 -20.953125 C 28.84375 -21.578125 27.359375 -22.113281 25.484375 -22.5625 L 18.453125 -24.171875 C 13.535156 -25.296875 9.875 -27.160156 7.46875 -29.765625 C 5.0625 -32.378906 3.859375 -35.769531 3.859375 -39.9375 C 3.859375 -43.03125 4.628906 -45.75 6.171875 -48.09375 C 7.722656 -50.4375 9.976562 -52.257812 12.9375 -53.5625 C 15.894531 -54.863281 19.429688 -55.515625 23.546875 -55.515625 C 27.765625 -55.515625 31.375 -54.957031 34.375 -53.84375 C 37.382812 -52.726562 39.925781 -51.023438 42 -48.734375 L 36.640625 -41.390625 L 35.703125 -41.390625 C 34.160156 -43.015625 32.390625 -44.234375 30.390625 -45.046875 C 28.398438 -45.859375 26.117188 -46.265625 23.546875 -46.265625 C 20.578125 -46.265625 18.316406 -45.738281 16.765625 -44.6875 C 15.222656 -43.644531 14.453125 -42.195312 14.453125 -40.34375 C 14.453125 -38.625 14.992188 -37.253906 16.078125 -36.234375 C 17.160156 -35.210938 19.035156 -34.414062 21.703125 -33.84375 L 28.890625 -32.34375 C 34.210938 -31.21875 38.070312 -29.3125 40.46875 -26.625 C 42.863281 -23.945312 44.0625 -20.445312 44.0625 -16.125 C 44.0625 -12.707031 43.320312 -9.734375 41.84375 -7.203125 C 40.375 -4.671875 38.15625 -2.707031 35.1875 -1.3125 C 32.21875 0.0820312 28.570312 0.78125 24.25 0.78125 Z M 24.25 0.78125 "/></g></g></g><g fill="#00ffff" fill-opacity="1"><g transform="translate(55.279492, 296.393366)"><g><path d="M 19.171875 0.78125 C 14.523438 0.78125 10.664062 -0.09375 7.59375 -1.84375 C 4.53125 -3.601562 2.296875 -5.972656 0.890625 -8.953125 L 7 -16.359375 L 7.9375 -16.359375 C 8.9375 -13.960938 10.351562 -12.070312 12.1875 -10.6875 C 14.019531 -9.300781 16.144531 -8.609375 18.5625 -8.609375 C 21.28125 -8.609375 23.300781 -9.398438 24.625 -10.984375 C 25.945312 -12.566406 26.609375 -15.144531 26.609375 -18.71875 L 26.609375 -54.71875 L 37.390625 -54.71875 L 37.390625 -18.53125 C 37.390625 -11.914062 35.882812 -7.039062 32.875 -3.90625 C 29.875 -0.78125 25.304688 0.78125 19.171875 0.78125 Z M 19.171875 0.78125 "/></g></g></g><g fill="#00ffff" fill-opacity="1"><g transform="translate(99.440496, 296.393366)"><g><path d="M 29.828125 0.78125 C 24.816406 0.78125 20.394531 -0.238281 16.5625 -2.28125 C 12.726562 -4.332031 9.722656 -7.457031 7.546875 -11.65625 C 5.378906 -15.863281 4.296875 -21.097656 4.296875 -27.359375 C 4.296875 -33.617188 5.378906 -38.851562 7.546875 -43.0625 C 9.722656 -47.269531 12.726562 -50.394531 16.5625 -52.4375 C 20.394531 -54.488281 24.816406 -55.515625 29.828125 -55.515625 C 34.847656 -55.515625 39.265625 -54.492188 43.078125 -52.453125 C 46.898438 -50.421875 49.890625 -47.296875 52.046875 -43.078125 C 54.203125 -38.859375 55.28125 -33.617188 55.28125 -27.359375 C 55.28125 -21.097656 54.203125 -15.859375 52.046875 -11.640625 C 49.890625 -7.421875 46.898438 -4.296875 43.078125 -2.265625 C 39.265625 -0.234375 34.847656 0.78125 29.828125 0.78125 Z M 29.828125 -8.609375 C 34.472656 -8.609375 38.015625 -10.097656 40.453125 -13.078125 C 42.898438 -16.054688 44.125 -20.816406 44.125 -27.359375 C 44.125 -33.898438 42.898438 -38.664062 40.453125 -41.65625 C 38.015625 -44.65625 34.472656 -46.15625 29.828125 -46.15625 C 25.160156 -46.15625 21.597656 -44.65625 19.140625 -41.65625 C 16.679688 -38.664062 15.453125 -33.898438 15.453125 -27.359375 C 15.453125 -20.816406 16.679688 -16.054688 19.140625 -13.078125 C 21.597656 -10.097656 25.160156 -8.609375 29.828125 -8.609375 Z M 29.828125 -8.609375 "/></g></g></g><g fill="#00ffff" fill-opacity="1"><g transform="translate(159.057849, 296.393366)"><g><path d="M 24.25 0.78125 C 20.457031 0.78125 17.082031 0.316406 14.125 -0.609375 C 11.164062 -1.546875 8.703125 -2.773438 6.734375 -4.296875 C 4.765625 -5.828125 3.253906 -7.5 2.203125 -9.3125 L 8.15625 -16.578125 L 9.09375 -16.578125 C 10.738281 -14.128906 12.828125 -12.179688 15.359375 -10.734375 C 17.898438 -9.296875 20.863281 -8.578125 24.25 -8.578125 C 27.144531 -8.578125 29.328125 -9.1875 30.796875 -10.40625 C 32.273438 -11.625 33.015625 -13.304688 33.015625 -15.453125 C 33.015625 -16.753906 32.773438 -17.84375 32.296875 -18.71875 C 31.828125 -19.59375 31.039062 -20.335938 29.9375 -20.953125 C 28.84375 -21.578125 27.359375 -22.113281 25.484375 -22.5625 L 18.453125 -24.171875 C 13.535156 -25.296875 9.875 -27.160156 7.46875 -29.765625 C 5.0625 -32.378906 3.859375 -35.769531 3.859375 -39.9375 C 3.859375 -43.03125 4.628906 -45.75 6.171875 -48.09375 C 7.722656 -50.4375 9.976562 -52.257812 12.9375 -53.5625 C 15.894531 -54.863281 19.429688 -55.515625 23.546875 -55.515625 C 27.765625 -55.515625 31.375 -54.957031 34.375 -53.84375 C 37.382812 -52.726562 39.925781 -51.023438 42 -48.734375 L 36.640625 -41.390625 L 35.703125 -41.390625 C 34.160156 -43.015625 32.390625 -44.234375 30.390625 -45.046875 C 28.398438 -45.859375 26.117188 -46.265625 23.546875 -46.265625 C 20.578125 -46.265625 18.316406 -45.738281 16.765625 -44.6875 C 15.222656 -43.644531 14.453125 -42.195312 14.453125 -40.34375 C 14.453125 -38.625 14.992188 -37.253906 16.078125 -36.234375 C 17.160156 -35.210938 19.035156 -34.414062 21.703125 -33.84375 L 28.890625 -32.34375 C 34.210938 -31.21875 38.070312 -29.3125 40.46875 -26.625 C 42.863281 -23.945312 44.0625 -20.445312 44.0625 -16.125 C 44.0625 -12.707031 43.320312 -9.734375 41.84375 -7.203125 C 40.375 -4.671875 38.15625 -2.707031 35.1875 -1.3125 C 32.21875 0.0820312 28.570312 0.78125 24.25 0.78125 Z M 24.25 0.78125 "/></g></g></g><g fill="#000000" fill-opacity="1"><g transform="translate(54.741051, 295.060668)"><g><path d="M 19.171875 0.78125 C 14.523438 0.78125 10.664062 -0.09375 7.59375 -1.84375 C 4.53125 -3.601562 2.296875 -5.972656 0.890625 -8.953125 L 7 -16.359375 L 7.9375 -16.359375 C 8.9375 -13.960938 10.351562 -12.070312 12.1875 -10.6875 C 14.019531 -9.300781 16.144531 -8.609375 18.5625 -8.609375 C 21.28125 -8.609375 23.300781 -9.398438 24.625 -10.984375 C 25.945312 -12.566406 26.609375 -15.144531 26.609375 -18.71875 L 26.609375 -54.71875 L 37.390625 -54.71875 L 37.390625 -18.53125 C 37.390625 -11.914062 35.882812 -7.039062 32.875 -3.90625 C 29.875 -0.78125 25.304688 0.78125 19.171875 0.78125 Z M 19.171875 0.78125 "/></g></g></g><g fill="#000000" fill-opacity="1"><g transform="translate(98.902054, 295.060668)"><g><path d="M 29.828125 0.78125 C 24.816406 0.78125 20.394531 -0.238281 16.5625 -2.28125 C 12.726562 -4.332031 9.722656 -7.457031 7.546875 -11.65625 C 5.378906 -15.863281 4.296875 -21.097656 4.296875 -27.359375 C 4.296875 -33.617188 5.378906 -38.851562 7.546875 -43.0625 C 9.722656 -47.269531 12.726562 -50.394531 16.5625 -52.4375 C 20.394531 -54.488281 24.816406 -55.515625 29.828125 -55.515625 C 34.847656 -55.515625 39.265625 -54.492188 43.078125 -52.453125 C 46.898438 -50.421875 49.890625 -47.296875 52.046875 -43.078125 C 54.203125 -38.859375 55.28125 -33.617188 55.28125 -27.359375 C 55.28125 -21.097656 54.203125 -15.859375 52.046875 -11.640625 C 49.890625 -7.421875 46.898438 -4.296875 43.078125 -2.265625 C 39.265625 -0.234375 34.847656 0.78125 29.828125 0.78125 Z M 29.828125 -8.609375 C 34.472656 -8.609375 38.015625 -10.097656 40.453125 -13.078125 C 42.898438 -16.054688 44.125 -20.816406 44.125 -27.359375 C 44.125 -33.898438 42.898438 -38.664062 40.453125 -41.65625 C 38.015625 -44.65625 34.472656 -46.15625 29.828125 -46.15625 C 25.160156 -46.15625 21.597656 -44.65625 19.140625 -41.65625 C 16.679688 -38.664062 15.453125 -33.898438 15.453125 -27.359375 C 15.453125 -20.816406 16.679688 -16.054688 19.140625 -13.078125 C 21.597656 -10.097656 25.160156 -8.609375 29.828125 -8.609375 Z M 29.828125 -8.609375 "/></g></g></g><g fill="#000000" fill-opacity="1"><g transform="translate(158.519407, 295.060668)"><g><path d="M 24.25 0.78125 C 20.457031 0.78125 17.082031 0.316406 14.125 -0.609375 C 11.164062 -1.546875 8.703125 -2.773438 6.734375 -4.296875 C 4.765625 -5.828125 3.253906 -7.5 2.203125 -9.3125 L 8.15625 -16.578125 L 9.09375 -16.578125 C 10.738281 -14.128906 12.828125 -12.179688 15.359375 -10.734375 C 17.898438 -9.296875 20.863281 -8.578125 24.25 -8.578125 C 27.144531 -8.578125 29.328125 -9.1875 30.796875 -10.40625 C 32.273438 -11.625 33.015625 -13.304688 33.015625 -15.453125 C 33.015625 -16.753906 32.773438 -17.84375 32.296875 -18.71875 C 31.828125 -19.59375 31.039062 -20.335938 29.9375 -20.953125 C 28.84375 -21.578125 27.359375 -22.113281 25.484375 -22.5625 L 18.453125 -24.171875 C 13.535156 -25.296875 9.875 -27.160156 7.46875 -29.765625 C 5.0625 -32.378906 3.859375 -35.769531 3.859375 -39.9375 C 3.859375 -43.03125 4.628906 -45.75 6.171875 -48.09375 C 7.722656 -50.4375 9.976562 -52.257812 12.9375 -53.5625 C 15.894531 -54.863281 19.429688 -55.515625 23.546875 -55.515625 C 27.765625 -55.515625 31.375 -54.957031 34.375 -53.84375 C 37.382812 -52.726562 39.925781 -51.023438 42 -48.734375 L 36.640625 -41.390625 L 35.703125 -41.390625 C 34.160156 -43.015625 32.390625 -44.234375 30.390625 -45.046875 C 28.398438 -45.859375 26.117188 -46.265625 23.546875 -46.265625 C 20.578125 -46.265625 18.316406 -45.738281 16.765625 -44.6875 C 15.222656 -43.644531 14.453125 -42.195312 14.453125 -40.34375 C 14.453125 -38.625 14.992188 -37.253906 16.078125 -36.234375 C 17.160156 -35.210938 19.035156 -34.414062 21.703125 -33.84375 L 28.890625 -32.34375 C 34.210938 -31.21875 38.070312 -29.3125 40.46875 -26.625 C 42.863281 -23.945312 44.0625 -20.445312 44.0625 -16.125 C 44.0625 -12.707031 43.320312 -9.734375 41.84375 -7.203125 C 40.375 -4.671875 38.15625 -2.707031 35.1875 -1.3125 C 32.21875 0.0820312 28.570312 0.78125 24.25 0.78125 Z M 24.25 0.78125 "/></g></g></g><g fill="#ff00ff" fill-opacity="1"><g transform="translate(211.780093, 295.060668)"><g><path d="M 42.453125 -34.140625 L 42.453125 -54.71875 L 53.21875 -54.71875 L 53.21875 0 L 42.453125 0 L 42.453125 -24.921875 L 17.921875 -24.921875 L 17.921875 0 L 7.109375 0 L 7.109375 -54.71875 L 17.921875 -54.71875 L 17.921875 -34.140625 Z M 42.453125 -34.140625 "/></g></g></g><g fill="#ff00ff" fill-opacity="1"><g transform="translate(272.145938, 295.060668)"><g><path d="M 29.015625 0.78125 C 21.472656 0.78125 15.878906 -1.003906 12.234375 -4.578125 C 8.597656 -8.160156 6.78125 -13.472656 6.78125 -20.515625 L 6.78125 -54.71875 L 17.375 -54.71875 L 17.375 -20.59375 C 17.375 -16.59375 18.332031 -13.59375 20.25 -11.59375 C 22.164062 -9.601562 25.085938 -8.609375 29.015625 -8.609375 C 36.773438 -8.609375 40.65625 -12.601562 40.65625 -20.59375 L 40.65625 -54.71875 L 51.234375 -54.71875 L 51.234375 -20.515625 C 51.234375 -13.472656 49.410156 -8.160156 45.765625 -4.578125 C 42.128906 -1.003906 36.546875 0.78125 29.015625 0.78125 Z M 29.015625 0.78125 "/></g></g></g><g fill="#ff00ff" fill-opacity="1"><g transform="translate(330.154035, 295.060668)"><g><path d="M 52.515625 0 L 41.140625 0 L 37.015625 -12.609375 L 16.0625 -12.609375 L 11.9375 0 L 0.828125 0 L 19.71875 -54.71875 L 33.609375 -54.71875 Z M 26.015625 -43.3125 L 18.984375 -21.703125 L 34.03125 -21.703125 L 26.953125 -43.3125 Z M 26.015625 -43.3125 "/></g></g></g><g fill="#00ffff" fill-opacity="1"><g transform="translate(208.905382, 295.060668)"><g><path d="M 42.453125 -34.140625 L 42.453125 -54.71875 L 53.21875 -54.71875 L 53.21875 0 L 42.453125 0 L 42.453125 -24.921875 L 17.921875 -24.921875 L 17.921875 0 L 7.109375 0 L 7.109375 -54.71875 L 17.921875 -54.71875 L 17.921875 -34.140625 Z M 42.453125 -34.140625 "/></g></g></g><g fill="#00ffff" fill-opacity="1"><g transform="translate(269.271227, 295.060668)"><g><path d="M 29.015625 0.78125 C 21.472656 0.78125 15.878906 -1.003906 12.234375 -4.578125 C 8.597656 -8.160156 6.78125 -13.472656 6.78125 -20.515625 L 6.78125 -54.71875 L 17.375 -54.71875 L 17.375 -20.59375 C 17.375 -16.59375 18.332031 -13.59375 20.25 -11.59375 C 22.164062 -9.601562 25.085938 -8.609375 29.015625 -8.609375 C 36.773438 -8.609375 40.65625 -12.601562 40.65625 -20.59375 L 40.65625 -54.71875 L 51.234375 -54.71875 L 51.234375 -20.515625 C 51.234375 -13.472656 49.410156 -8.160156 45.765625 -4.578125 C 42.128906 -1.003906 36.546875 0.78125 29.015625 0.78125 Z M 29.015625 0.78125 "/></g></g></g><g fill="#00ffff" fill-opacity="1"><g transform="translate(327.279324, 295.060668)"><g><path d="M 52.515625 0 L 41.140625 0 L 37.015625 -12.609375 L 16.0625 -12.609375 L 11.9375 0 L 0.828125 0 L 19.71875 -54.71875 L 33.609375 -54.71875 Z M 26.015625 -43.3125 L 18.984375 -21.703125 L 34.03125 -21.703125 L 26.953125 -43.3125 Z M 26.015625 -43.3125 "/></g></g></g><g fill="#313bac" fill-opacity="1"><g transform="translate(210.342736, 295.060668)"><g><path d="M 42.453125 -34.140625 L 42.453125 -54.71875 L 53.21875 -54.71875 L 53.21875 0 L 42.453125 0 L 42.453125 -24.921875 L 17.921875 -24.921875 L 17.921875 0 L 7.109375 0 L 7.109375 -54.71875 L 17.921875 -54.71875 L 17.921875 -34.140625 Z M 42.453125 -34.140625 "/></g></g></g><g fill="#313bac" fill-opacity="1"><g transform="translate(270.708582, 295.060668)"><g><path d="M 29.015625 0.78125 C 21.472656 0.78125 15.878906 -1.003906 12.234375 -4.578125 C 8.597656 -8.160156 6.78125 -13.472656 6.78125 -20.515625 L 6.78125 -54.71875 L 17.375 -54.71875 L 17.375 -20.59375 C 17.375 -16.59375 18.332031 -13.59375 20.25 -11.59375 C 22.164062 -9.601562 25.085938 -8.609375 29.015625 -8.609375 C 36.773438 -8.609375 40.65625 -12.601562 40.65625 -20.59375 L 40.65625 -54.71875 L 51.234375 -54.71875 L 51.234375 -20.515625 C 51.234375 -13.472656 49.410156 -8.160156 45.765625 -4.578125 C 42.128906 -1.003906 36.546875 0.78125 29.015625 0.78125 Z M 29.015625 0.78125 "/></g></g></g><g fill="#313bac" fill-opacity="1"><g transform="translate(328.716679, 295.060668)"><g><path d="M 52.515625 0 L 41.140625 0 L 37.015625 -12.609375 L 16.0625 -12.609375 L 11.9375 0 L 0.828125 0 L 19.71875 -54.71875 L 33.609375 -54.71875 Z M 26.015625 -43.3125 L 18.984375 -21.703125 L 34.03125 -21.703125 L 26.953125 -43.3125 Z M 26.015625 -43.3125 "/></g></g></g></svg>